<?xml version="1.0" standalone="no"?>
<!DOCTYPE svg PUBLIC "-//W3C//DTD SVG 20010904//EN"
 "http://www.w3.org/TR/2001/REC-SVG-20010904/DTD/svg10.dtd">
<svg version="1.0" xmlns="http://www.w3.org/2000/svg"
 width="512.000000pt" height="512.000000pt" viewBox="0 0 512.000000 512.000000"
 preserveAspectRatio="xMidYMid meet">
<metadata>
Created by potrace 1.16, written by Peter Selinger 2001-2019
</metadata>
<g transform="translate(0.000000,512.000000) scale(0.100000,-0.100000)"
fill="#000000" stroke="none">
<path d="M0 2560 l0 -2560 353 0 c347 0 352 0 322 19 -40 24 -71 60 -84 94 -8
20 -11 407 -11 1243 l0 1214 -165 0 c-186 0 -212 6 -262 63 -51 58 -60 113
-31 189 10 27 2317 2261 2359 2284 20 11 -182 13 -1228 14 l-1253 0 0 -2560z"/>
<path d="M2639 5106 c42 -23 2349 -2257 2359 -2284 29 -76 20 -131 -31 -189
-50 -57 -76 -63 -262 -63 l-165 0 0 -1214 c0 -836 -3 -1223 -11 -1243 -13 -34
-44 -70 -84 -94 -30 -19 -25 -19 323 -19 l352 0 0 2560 0 2560 -1252 0 c-1047
-1 -1249 -3 -1229 -14z"/>
<path d="M2140 848 c-1 -731 -1 -739 -47 -790 -10 -12 -31 -29 -48 -39 -29
-19 -20 -19 515 -19 535 0 544 0 515 19 -16 10 -38 27 -48 39 -46 51 -46 59
-47 790 l0 692 -420 0 -420 0 0 -692z"/>
</g>
</svg>
